<?xml version="1.0" standalone="no"?><!DOCTYPE svg PUBLIC "-//W3C//DTD SVG 1.1//EN" "http://www.w3.org/Graphics/SVG/1.1/DTD/svg11.dtd"><svg t="1544268956136" class="icon" style="" viewBox="0 0 1024 1024" version="1.1" xmlns="http://www.w3.org/2000/svg" p-id="1468" xmlns:xlink="http://www.w3.org/1999/xlink" width="200" height="200"><defs><style type="text/css"></style></defs><path d="M893.3 307.9c-47.2-47.2-108.3-77.7-170.1-42.1 9-49 2.2-110-54.2-167.6 0 0-88.3 112.1-15.9 228.8-13 13.8-25.6 27.8-38.5 40.7-28.1 28.1 15.5 71.8 43.7 43.7 24.1-24.1 47.6-48.9 72.3-72.3 43.1-40.8 80.8-25.6 119 12.6 28.1 28 71.8-15.7 43.7-43.8z" fill="#FDDE80" p-id="1469"></path><path d="M715.7 331.8c-78.9-78.9-206.8-78.9-285.7 0-19.2 19.2-33.6 41.3-43.5 64.9-67.8-0.1-135.6 25.8-187.3 77.5-103.4 103.3-103.4 270.8 0 374.2 103.3 103.3 270.9 103.3 374.2 0 51.7-51.7 77.5-119.5 77.5-187.3 23.6-9.9 45.7-24.3 64.9-43.5 78.8-79 78.8-206.9-0.1-285.8z" fill="#D197F4" p-id="1470"></path><path d="M514.6 814.6c-79.3 76.4-205.6 74.1-282-5.3s-74.1-205.6 5.3-282c0 0-47.4 125.6 46.3 222.9 106.2 110.3 230.4 64.4 230.4 64.4z m0 0" fill="#9D8CE5" p-id="1471"></path></svg>