<?xml version="1.0" standalone="no"?><!DOCTYPE svg PUBLIC "-//W3C//DTD SVG 1.1//EN" "http://www.w3.org/Graphics/SVG/1.1/DTD/svg11.dtd"><svg t="1544446157984" class="icon" style="" viewBox="0 0 1024 1024" version="1.1" xmlns="http://www.w3.org/2000/svg" p-id="901" xmlns:xlink="http://www.w3.org/1999/xlink" width="200" height="200"><defs><style type="text/css"></style></defs><path d="M640.4 315.8c-0.9 1.2-0.9 3.1 0 4.2l89.8 122.6c0.9 1.2 0.4 2-1.1 1.8L578 428.1c-1.4-0.2-3.1 0.8-3.7 2.1L513 569.3c-0.6 1.3-1.5 1.3-2.1 0l-61.3-139.1c-0.6-1.3-2.2-2.3-3.7-2.1l-151.1 16.4c-1.4 0.2-1.9-0.7-1.1-1.8L383.6 320c0.9-1.2 0.9-3.1 0-4.2l-89.8-122.6c-0.9-1.2-0.4-2 1.1-1.8L446 207.8c1.4 0.2 3.1-0.8 3.7-2.1L511 66.6c0.6-1.3 1.5-1.3 2.1 0l61.3 139.1c0.6 1.3 2.2 2.3 3.7 2.1l151.1-16.4c1.4-0.2 1.9 0.7 1.1 1.8l-89.9 122.6z" fill="#58D598" p-id="902"></path><path d="M512 586.1m-373.7 0a373.7 373.7 0 1 0 747.4 0 373.7 373.7 0 1 0-747.4 0Z" fill="#FF5C7A" p-id="903"></path><path d="M388.2 668.3c-12.2 23.4-38.3 60.1-43.2 67.3-6 6.8-13 7.6-20.1 4-6.3-5.4-6.4-9.6-1.3-17.4 13.1-15.3 28.4-40.8 40.5-63.3 3.6-8 9.4-10.7 17.4-8 7.2 3.6 9.4 9.4 6.7 17.4z m82.8-139h33.5c7.2 0.9 11.2 4.9 12.1 12.1 0 8-3.6 12.1-10.7 12.1h-63V603h61.7c8 0.9 12.5 5.4 13.4 13.4-0.9 7.2-5.8 10.7-14.7 10.7H443v101.8c4.5 29.5-15.6 38-60.3 25.5-8.9-2.7-13-7.6-12.1-14.7 2.7-8 8-11.2 16.1-9.4 25 8.9 35.7 6.2 32.2-8v-95.1h-79c-8 0-12.5-3.6-13.4-10.7 0.9-8 5.4-12.5 13.4-13.4h79v-49.6H341c-8.9 0-13.9-3.6-14.7-10.7 0.9-8 5.4-12.5 13.4-13.4h103.2c4.5-7.2 10.7-22.8 18.8-46.9 2.7-8 8-10.7 16.1-8 8.9 3.6 12.1 8.9 9.4 16.1-1.8 3.6-4.5 9.4-8 17.4-3.7 10.6-6.4 17.7-8.2 21.3z m22.8-59H343.7c-8 0-12.1-4-12.1-12.1 0-8 4-12.5 12.1-13.4H412c-2.7-5.4-5.4-10.7-8-16.1-5.4-8-4.5-14.7 2.7-20.1 8-3.6 14.7-1.3 20.1 6.7 6.2 14.3 11.6 24.1 16.1 29.5h50.9c7.2 0.9 11.2 5.4 12.1 13.4-1 8.1-5 12.1-12.1 12.1z m-97.9 12.1l9.4 18.8c0.9 2.7 2.2 4.9 4 6.7 2.7 8 0.9 14.3-5.4 18.8-7.2 2.7-12.5 0-16.1-8-5.4-9.8-9.8-18.3-13.4-25.5-3.6-6.2-2.2-12.1 4-17.4 7.2-2.8 13-0.6 17.5 6.6zM475 636.5c5.4 6.3 12.5 15.6 21.5 28.2 0.9 2.7 2.2 4.5 4 5.4 4.5 7.2 4 13.4-1.3 18.8-6.3 4.5-12.1 3.6-17.4-2.7-2.7-2.7-5.8-6.2-9.4-10.7-5.4-8-10.7-15.6-16.1-22.8-5.4-5.4-5.4-10.7 0-16.1 6.2-4.6 12.4-4.6 18.7-0.1z m96.5-158.2v41.6h113.9c25 0 24.2 29.5 1.3 29.5h-32.2v201c-0.9 8.9-5.4 13.9-13.4 14.7-8.9-0.9-13.4-5.8-13.4-14.7v-201h-56.3v71.1c-3.6 46.5-8.6 97.8-47 121.9-8 2.7-14.7 0.4-20.1-6.7-3.6-8-1.8-14.3 5.4-18.8 33.1-19.6 34-63.8 34.9-100.5V463.6c0-17 8.9-25.5 26.8-25.5 41.1-4.5 70.2-8.9 87.1-13.4 8.9-1.8 15.2 0.9 18.8 8 1.8 9.8-1.8 15.6-10.7 17.4-27.7 5.4-54.5 9.8-80.4 13.4-10.7 1-15.6 5.9-14.7 14.8z" fill="#FDDE80" p-id="904"></path><path d="M642 773.1c-14.8-1.3-22.3-9.6-22.3-22.7v-193h-40.2v63c-3.3 43.3-7.8 101.8-50.7 128.7-13.1 4.6-23.4 1.2-30.8-8.7-6.1-13.3-3-23.8 7.5-30.4 29.2-17.4 30.3-57.8 31.1-93.5V463.6c0-21.3 12.7-33.5 34.8-33.5 39.8-4.4 68.7-8.8 85.1-13.1 12.9-2.6 22.7 1.8 28 12.2l0.7 2.2c2.6 14.1-3.8 24.1-17 26.7-28 5.4-55.2 9.9-80.9 13.5-5.5 0.5-7 1.8-7.3 2.2-0.7 0.8-0.7 2.5-0.6 3.8v34.3h105.9c9.9 0 16 3.7 19.4 6.7 4.6 4.2 7.2 10.1 7.2 16.2 0 11-8.9 22.6-25.3 22.6h-24.2v193c-1.1 13.4-8.6 21.4-20.4 22.7z m-78.5-231.7h72.3v209c0 4.8 1.3 6.3 6.2 6.8 1.4-0.3 4-1.1 4.6-7.6V541.4h40.2c6.4 0 9.3-3.3 9.3-6.6 0-4.2-4.2-6.9-10.6-6.9h-122v-49.2c-0.5-6.1 0.9-11.2 4.3-15.2 3.8-4.6 9.8-7.2 17.9-7.9 25-3.5 51.9-8 79.6-13.3 3.3-0.6 5.3-1.4 4.5-6.9-1.3-2.3-3.5-4.1-9.5-2.8-16.9 4.5-45.8 8.9-87.8 13.5-14.4 0.1-19.7 5-19.7 17.5v152.8c-0.9 38.5-2.1 85.6-38.8 107.4-3.2 2-4.3 3.7-2.1 8.6 2.9 3.5 6.3 3.7 10.3 2.4 31.6-20.2 37.6-64 41.5-115l-0.2-78.4zM415.8 768c-9.8 0-21.6-1.9-35.5-5.8-18.1-5.4-18.5-18.2-17.9-23.5 4.3-13.5 13.9-18.9 25.8-16.2 16.3 5.8 21.9 5 23.2 4.7-0.1-0.3-0.2-1.3-0.6-3l-0.2-1.9v-87.1h-71c-12 0-20-6.6-21.4-17.8 1.3-13.6 8.7-21 20.5-22.3l71.9-0.1v-33.5H341c-18.5 0-22-12.4-22.7-17.8 1.3-13.6 8.7-21.1 20.5-22.3h41.5c-5-9.2-9.5-17.5-13-24.6-3.5-6.1-3.7-12.4-0.9-18.4h-22.6c-12.4 0-20.1-7.7-20.1-20.1 0-12.1 7.2-20 19.2-21.4h56.2l-2.3-4.5c-7.2-10.7-5.5-22.2 5.1-30.1 13.1-6.1 24.1-2.6 31.6 8.7 6.2 14.1 10.5 21.7 13.4 25.9h46.9c11.8 1.4 18.7 8.9 20 20.5-1.3 13.6-8.6 20.8-19.6 21 3 6.2 1.3 12.4 0.3 14.9-2.1 4.3-4.7 10-8.2 17.9-1.3 3.9-2.4 7.2-3.5 10.2h21.6c11.7 1.4 18.7 8.3 20 19.1 0.1 13.4-7.1 21.1-18.7 21.1h-55V595h53.7c12.6 1.3 20.1 8.8 21.4 20.5-0.7 7.2-4.2 19.6-22.7 19.6h-18.9c5 6.2 11.3 14.5 18.7 24.8l1.1 2.2 2 1 1.2 2.6c6.4 10.3 5.5 20.7-2.5 28.7-10.6 7.8-21.1 6.2-29.2-3.1-2.4-2.4-5.8-6.2-9.6-11-5.3-7.9-10.3-14.9-15.2-21.6v70.2c2.1 13.1-0.8 24-8.8 31-5.9 5.4-14.6 8.1-26.1 8.1z m-33.5-30.3c-1.8 0-3.1 1-4.2 4.5 0.2 0.1-0.2 2.5 6.8 4.5 31.7 8.9 42.9 4.5 46.7 1.2 3.6-3.2 4.7-9.2 3.4-17.8l-0.1-111.1h68.4c6.3 0 6.5-1.9 6.8-3.7-0.5-2.4-2-4-6.3-4.4l-68.8 0.1v-65.6h71c1.6 0 2.1-0.3 2.1-0.3s0.6-0.8 0.6-3.7c-0.4-2.5-1.5-3.7-5-4.1l-45.6 0.1 5.9-11.6c1.6-3.1 4.1-9.9 7.6-20.4 3.9-8.9 6.7-14.9 8.5-18.5 0.3-1 0.9-2.6-5.2-5-3.4-1.1-4.2-0.7-5.5 3.1-8.3 25-14.7 40.8-19.6 48.6l-2.4 3.8H339.6c-3.4 0.4-5 1.9-5.4 6.3 0.2 0 0.6 1.8 6.8 1.8h85.7V611h-87.1c-3.4 0.4-5 1.9-5.4 6.2 0.3 0.4 0.4 1.8 5.4 1.8h87.1v102.2c2.1 9.5-1.2 14.9-4.3 17.7-6.9 6.3-18.8 5.9-38.6-1.2h-1.5z m83.3-96.5c-1.5 0-3 0.6-4.7 1.9-1.2 1.4-1.2 1.7 1 3.9 6.2 8.1 11.6 15.8 17.1 24 2.9 3.7 5.8 7 8.4 9.5 3.6 4.1 4.8 3.5 7.1 1.9 0.9-1 2-2.7 0-6.6-1.9-1.5-3.8-3.7-5.2-7.2-8.1-11.3-14.7-20-19.7-25.9-1.4-1.1-2.7-1.5-4-1.5z m-62.8-162.9l0.2 0.5 9.4 18.8c0.9 2.6 1.6 3.7 2.5 4.6l2 3.2c1.9 5.8 2.1 11.2 0.6 16h20.6c3.1-6.2 8.2-18.3 15.9-41.4 0.2-0.5 0.4-1 0.5-1.5h-51.7z m-20.2 4.4c-3.1 3.1-2.1 4.8-1.2 6.4 3.7 7.5 8.2 15.9 13.5 25.6 2.2 4.8 3.6 5.2 5.2 4.7 2-1.7 3-3.7 2.1-7.6-2-2.3-3.5-5.1-4.5-8.2l-8.7-17.3c-2.5-3.7-4.3-4.1-6.4-3.6z m-38.9-29.8c-3.1 0.4-4 1.5-4 5.4 0 3.6 0.5 4 4 4h150.1c2.1 0 3.5 0 4.1-5-0.6-3.6-2.6-4.2-5.1-4.5l-53.7 0.1-2.4-2.9c-5-6-10.7-16.3-17.3-31.4-3.3-4.7-6.3-4-9.5-2.6-1.3 1.2-2.8 3 0.8 8.3l14.3 28.6h-81.3z m-10.9 296.8c-3.7 0-7.6-1-11.5-2.9l-1.6-1.1c-11.9-10.2-7.8-20.2-2.9-27.9 11.4-13.5 25.8-36 40.2-62.8 4.9-11.2 15.2-15.8 27-11.8 11.8 5.8 15.7 15.7 11.8 27.5l-0.5 1.2c-10.7 20.6-31.6 50.6-40.5 63.5l-3.2 4.7c-5.5 6.4-12 9.6-18.8 9.6z m-3.4-16.8c3.9 1.7 6.6 0.9 9.6-2.5l2.7-4c8.6-12.5 28.8-41.5 39.1-61.2 1.3-4.3 0.2-5.6-2.9-7.2-2.8-0.8-4.5-0.5-6.5 4.1-9 16.8-26.1 46.9-41.8 65.3-1.6 2.6-1.7 3.8-1.7 3.9 0.1 0 0.4 0.6 1.5 1.6z" fill="#FDDE80" p-id="905"></path></svg>