<?xml version="1.0" standalone="no"?><!DOCTYPE svg PUBLIC "-//W3C//DTD SVG 1.1//EN" "http://www.w3.org/Graphics/SVG/1.1/DTD/svg11.dtd"><svg t="1544807606452" class="icon" style="" viewBox="0 0 1024 1024" version="1.1" xmlns="http://www.w3.org/2000/svg" p-id="21904" xmlns:xlink="http://www.w3.org/1999/xlink" width="200" height="200"><defs><style type="text/css"></style></defs><path d="M582.192074 99.804356l327.563013 188.641199c24.859693 14.623349 40.945377 40.945377 40.945377 70.192074v378.744734c0 29.246698-16.085684 55.568725-40.945377 70.192075l-327.563013 190.103534c-24.859693 14.623349-57.03106 14.623349-81.890753 0L172.738308 809.036773c-24.859693-14.623349-40.945377-40.945377-40.945377-70.192075v-380.207069c0-29.246698 16.085684-55.568725 40.945377-70.192074L500.301321 99.804356c24.859693-16.085684 57.03106-16.085684 81.890753 0z" fill="#C4EBD9" p-id="21905"></path><path d="M523.698679 12.064263l327.563013 188.641199c24.859693 14.623349 40.945377 40.945377 40.945377 70.192075v378.744734c0 29.246698-16.085684 55.568725-40.945377 70.192074l-327.563013 190.103534c-24.859693 14.623349-57.03106 14.623349-81.890753 0L114.244913 721.29668c-24.859693-14.623349-40.945377-40.945377-40.945377-70.192075v-380.207068c0-29.246698 16.085684-55.568725 40.945377-70.192075L441.807926 12.064263c24.859693-16.085684 57.03106-16.085684 81.890753 0z" fill="#08B162" p-id="21906"></path><path d="M647.997144 389.346662c0-11.698679 8.774009-20.472688 20.472688-20.472688 11.698679 0 20.472688 8.774009 20.472689 20.472688v190.103534c0 35.096037-27.784363 62.8804-62.8804 62.8804H340.906819c-35.096037 0-62.8804-27.784363-62.8804-62.8804V297.219564c0-35.096037 27.784363-62.8804 62.8804-62.880399h210.576223c35.096037 0 62.8804 27.784363 62.8804 62.880399v217.887898c0 11.698679-8.774009 20.472688-20.472689 20.472688s-20.472688-8.774009-20.472688-20.472688V297.219564c0-13.161014-10.236344-23.397358-23.397358-23.397358H340.906819c-13.161014 0-23.397358 10.236344-23.397358 23.397358v282.230632c0 13.161014 10.236344 23.397358 23.397358 23.397358h282.230632c13.161014 0 23.397358-10.236344 23.397358-23.397358v-190.103534z m-273.456623-19.010354c-10.236344 0-19.010353-8.774009-19.010353-19.010353 0-10.236344 8.774009-19.010353 19.010353-19.010353h130.147805c10.236344 0 19.010353 8.774009 19.010353 19.010353 0 10.236344-8.774009 19.010353-19.010353 19.010353h-130.147805z m0 87.740093c-10.236344 0-19.010353-8.774009-19.010353-19.010353s8.774009-19.010353 19.010353-19.010354h86.277758c10.236344 0 19.010353 8.774009 19.010354 19.010354s-8.774009 19.010353-19.010354 19.010353h-86.277758z" fill="#FFFFFF" p-id="21907"></path></svg>