<?xml version="1.0" standalone="no"?><!DOCTYPE svg PUBLIC "-//W3C//DTD SVG 1.1//EN" "http://www.w3.org/Graphics/SVG/1.1/DTD/svg11.dtd"><svg t="1544446666960" class="icon" style="" viewBox="0 0 1024 1024" version="1.1" xmlns="http://www.w3.org/2000/svg" p-id="13371" xmlns:xlink="http://www.w3.org/1999/xlink" width="200" height="200"><defs><style type="text/css"></style></defs><path d="M196.608 316.928h706.56v556.544h-706.56V316.928z" fill="#E2E9F7" p-id="13372"></path><path d="M808.448 919.04h-590.336c-78.336 0-141.824-63.488-141.824-141.824v-354.304c0-78.336 63.488-141.824 141.824-141.824h590.336c78.336 0 141.824 63.488 141.824 141.824v354.304c0 78.848-63.488 141.824-141.824 141.824z m-590.336-589.824c-52.224 0-94.208 42.496-94.208 94.208v354.304c0 52.224 42.496 94.208 94.208 94.208h590.336c52.224 0 94.208-42.496 94.208-94.208v-354.304c0-52.224-42.496-94.208-94.208-94.208h-590.336z" fill="#2C64F3" p-id="13373"></path><path d="M336.384 765.952c-78.336 0-141.824-63.488-141.824-141.824 0-78.336 63.488-141.824 141.824-141.824s141.824 63.488 141.824 141.824c0 78.336-63.488 141.824-141.824 141.824z m0-236.032c-52.224 0-94.208 42.496-94.208 94.208s42.496 94.208 94.208 94.208 94.208-42.496 94.208-94.208c0-52.224-41.984-94.208-94.208-94.208z m306.688 176.64c-12.8 0-23.552-10.752-23.552-23.552V552.96c0-12.8 10.752-23.552 23.552-23.552 12.8 0 23.552 10.752 23.552 23.552v130.048c0.512 13.312-10.24 23.552-23.552 23.552z m165.376 0c-12.8 0-23.552-10.752-23.552-23.552V552.96c0-12.8 10.752-23.552 23.552-23.552 12.8 0 23.552 10.752 23.552 23.552v130.048c0 13.312-10.24 23.552-23.552 23.552z m-82.432 47.616c-12.8 0-23.552-10.752-23.552-23.552v-224.256c0-12.8 10.752-23.552 23.552-23.552 12.8 0 23.552 10.752 23.552 23.552v224.256c0 12.8-10.752 23.552-23.552 23.552z m35.328-437.248c-6.144 0-12.288-2.56-16.896-7.168l-153.6-153.6c-9.216-9.216-9.216-24.064 0-33.28 9.216-9.216 24.064-9.216 33.28 0l153.6 153.6c9.216 9.216 9.216 24.064 0 33.28-4.096 5.12-10.24 7.168-16.384 7.168z" fill="#2C64F3" p-id="13374"></path></svg>