<?xml version="1.0" standalone="no"?><!DOCTYPE svg PUBLIC "-//W3C//DTD SVG 1.1//EN" "http://www.w3.org/Graphics/SVG/1.1/DTD/svg11.dtd"><svg t="1544270629837" class="icon" style="" viewBox="0 0 1024 1024" version="1.1" xmlns="http://www.w3.org/2000/svg" p-id="35325" xmlns:xlink="http://www.w3.org/1999/xlink" width="200" height="200"><defs><style type="text/css"></style></defs><path d="M762.8 71.1c-16-11.6-38.6-8.1-50.3 7.9L504.2 365.5 295.8 79c-11.6-16-34.3-19.6-50.3-7.9-16 11.6-19.6 34.3-7.9 50.3L461 428.5c-4.2 14.2 0.6 30.1 13.2 39.3 9 6.5 19.9 8.1 30 5.6 10 2.5 21 0.9 30-5.6 12.6-9.2 17.4-25.1 13.2-39.3l223.4-307.2c11.6-16 8-38.6-8-50.2z" fill="#FB813A" p-id="35326"></path><path d="M861.7 182.1H162.3c-33.8 0-61.1 27.4-61.1 61.1v655.4c0 33.8 27.4 61.1 61.1 61.1h699.5c33.8 0 61.1-27.4 61.1-61.1V243.2c0-33.8-27.4-61.1-61.2-61.1z" fill="#FDDE80" p-id="35327"></path><path d="M781.1 863.2H242.9c-21.5 0-39-17.5-39-39v-399c0-21.5 17.5-39 39-39h538.3c21.5 0 39 17.5 39 39v398.9c0 21.6-17.5 39.1-39.1 39.1z" fill="#FFFFFF" p-id="35328"></path><path d="M398.9 480.3H297c-5.2 0-9.4 4.2-9.4 9.4v101.9c0 5.2 4.2 9.4 9.4 9.4h102c5.2 0 9.4-4.2 9.4-9.4V489.7c-0.1-5.2-4.3-9.4-9.5-9.4zM563 480.3H461c-5.2 0-9.4 4.2-9.4 9.4v101.9c0 5.2 4.2 9.4 9.4 9.4h102c5.2 0 9.4-4.2 9.4-9.4V489.7c0-5.2-4.2-9.4-9.4-9.4zM727.1 480.3h-102c-5.2 0-9.3 4.2-9.3 9.3v102c0 5.2 4.2 9.4 9.4 9.4h102c5.2 0 9.3-4.2 9.3-9.3v-102c-0.1-5.2-4.3-9.4-9.4-9.4zM398.9 665.8h-102c-5.2 0-9.3 4.2-9.3 9.3v102c0 5.2 4.2 9.4 9.4 9.4h102c5.2 0 9.3-4.2 9.3-9.3v-102c0-5.2-4.2-9.4-9.4-9.4zM563 665.8H461c-5.2 0-9.4 4.2-9.4 9.4v101.9c0 5.2 4.2 9.4 9.4 9.4h102c5.2 0 9.4-4.2 9.4-9.4V675.2c0-5.2-4.2-9.4-9.4-9.4z" fill="#FB813A" p-id="35329"></path><path d="M625.1 786.5h102c5.2 0 9.4-4.2 9.4-9.4V675.2c0-5.2-4.2-9.4-9.4-9.4h-102c-5.2 0-9.4 4.2-9.4 9.4v101.9c0 5.2 4.2 9.4 9.4 9.4z" fill="#9289F0" p-id="35330"></path></svg>