<?xml version="1.0" standalone="no"?><!DOCTYPE svg PUBLIC "-//W3C//DTD SVG 1.1//EN" "http://www.w3.org/Graphics/SVG/1.1/DTD/svg11.dtd"><svg t="1544813320007" class="icon" style="" viewBox="0 0 1024 1024" version="1.1" xmlns="http://www.w3.org/2000/svg" p-id="920" xmlns:xlink="http://www.w3.org/1999/xlink" width="200" height="200"><defs><style type="text/css"></style></defs><path d="M584.3 90.2c36.4-36.4 147 15.3 247.1 115.5s151.8 210.8 115.5 247.1c-2 2-4.3 3.8-6.8 5.3-41.9 25.1-713.9 420.5-713.9 420.5s-25-5.6-54-34.6c-31.2-31.2-38.4-54.6-38.4-54.6S558.1 134.1 578.5 97.9c1.6-2.8 3.5-5.4 5.8-7.7z" fill="#9796ED" p-id="921"></path><path d="M133.7 789.4l0.6-0.9c-5.7 3.8-39.6 22.3-57.8 32.3-7.8 4.3-12.1 12.8-10.8 21.6 2.2 15.3 10 39.9 35.1 65 25.7 25.7 50.9 34.6 66.2 37.6 8.6 1.7 17.3-1.9 22-9.4 12-19 35.8-56.3 37.1-57 0 0-25-5.6-54-34.6-31.2-31.2-38.4-54.6-38.4-54.6z" fill="#9289F0" p-id="922"></path><path d="M584.3 90.2c36.4-36.4 147 15.3 247.1 115.5s151.8 210.8 115.5 247.1c-2 2-4.3 3.8-6.8 5.3-41.9 25.1-113.4 66.9-113.4 66.9s-71.2-4.7-193-126.6C519 283.8 508.9 207.9 508.9 207.9s44.6-68.7 69.6-110c1.7-2.8 3.5-5.4 5.8-7.7z" fill="#F7DF88" p-id="923"></path><path d="M699.719728 337.318615a256.4 93.1 44.999 1 0 131.660985-131.66558 256.4 93.1 44.999 1 0-131.660985 131.66558Z" fill="#8683EA" p-id="924"></path></svg>