<svg xmlns="http://www.w3.org/2000/svg" viewBox="0 0 230 72" width="230" height="72">
	<style>
		tspan { white-space:pre }
	</style>
	<path id="5ddm " fill="#f99f11" d="M42.96 7.28L42.96 7.28Q42.4 13.2 36.96 16.4Q31.6 19.52 22.32 20.4L21.68 28.8Q30.24 30.08 36.24 33.68Q42.24 37.28 42.48 45.36Q42.8 55.12 36.64 59.28Q30.48 63.44 20.96 64Q15.12 64.32 11.04 63.68Q6.96 62.96 3.92 60.88Q3.92 60.56 3.92 60.32Q3.92 60 3.92 59.68Q3.92 59.44 3.92 59.2Q3.92 58.88 3.92 58.56Q9.44 57.52 14.24 55.2Q19.04 52.8 20.08 47.2Q20.16 46.8 20.16 46.4Q20.24 46 20.24 45.68Q20.16 41.44 15.92 38.64Q11.76 35.76 5.12 35.44Q5.12 31.92 5.12 28.4Q5.2 24.88 5.28 21.36Q5.36 17.84 5.36 14.32Q5.44 10.8 5.44 7.28L42.96 7.28ZM90.24 23.84L90.24 23.84Q92.72 27.12 94 30.96Q95.36 34.8 95.52 38.8Q95.52 39.04 95.52 39.36Q95.52 39.6 95.52 39.92Q95.52 47.12 91.6 53.52Q87.76 59.92 80 62.72Q76.88 63.92 73.28 64Q69.76 64.08 65.76 64Q64.72 64 63.6 64Q62.48 64 61.36 64Q59.44 64 57.52 64Q55.68 64 53.84 64Q52 64 50.08 64Q48.24 64 46.32 64Q46.64 55.68 46.72 47.36Q46.88 39.04 46.72 30.72Q46.72 26.56 46.56 22.4Q46.48 18.24 46.32 14.08L66.64 14.08Q74.32 14.16 80.32 16.48Q86.4 18.72 90.24 23.84ZM77.2 39.84L77.2 39.84Q74.96 35.28 72.16 33.52Q69.36 31.76 66.24 31.52Q66.16 35.68 66.16 39.84Q66.16 43.92 66.24 48Q70 47.6 72.72 45.6Q75.44 43.52 77.2 39.84Z" />
	<path id="5ddm " fill="#0088ff" d="M144.4 23.84L144.4 23.84Q146.88 27.12 148.16 30.96Q149.52 34.8 149.68 38.8Q149.68 39.04 149.68 39.36Q149.68 39.6 149.68 39.92Q149.68 47.12 145.76 53.52Q141.92 59.92 134.16 62.72Q131.04 63.92 127.44 64Q123.92 64.08 119.92 64Q118.88 64 117.76 64Q116.64 64 115.52 64Q113.6 64 111.68 64Q109.84 64 108 64Q106.16 64 104.24 64Q102.4 64 100.48 64Q100.8 55.68 100.88 47.36Q101.04 39.04 100.88 30.72Q100.88 26.56 100.72 22.4Q100.64 18.24 100.48 14.08L120.8 14.08Q128.48 14.16 134.48 16.48Q140.56 18.72 144.4 23.84ZM131.36 39.84L131.36 39.84Q129.12 35.28 126.32 33.52Q123.52 31.76 120.4 31.52Q120.32 35.68 120.32 39.84Q120.32 43.92 120.4 48Q124.16 47.6 126.88 45.6Q129.6 43.52 131.36 39.84ZM227.2 64L227.2 64L206.16 64L202.56 46.72L191.28 64L180.16 46.08L175.6 64L156.72 64L169.04 14.08L183.2 14.08L193.12 36.48Q196.24 31.36 199.12 25.76Q202.08 20.16 204.8 14.08L218.48 14.08Q219.52 27.04 221.6 39.6Q223.76 52.08 227.2 64Z" />
</svg>