<svg xmlns="http://www.w3.org/2000/svg" viewBox="0 0 230 72" width="230" height="72">
	<style>
		tspan { white-space:pre }
	</style>
	<path id="8ana " fill="#f99f11" d="M46.07 47.7L46.07 47.7Q46.07 54.45 39.77 59.25Q33.48 63.98 24.63 63.98Q15.77 63.98 9.47 59.25Q3.17 54.45 3.17 47.7Q3.17 44.1 5.05 40.95Q7 37.8 10.22 35.55Q7.6 33.38 6.02 30.6Q4.53 27.83 4.53 24.6Q4.53 18.08 10.53 13.43Q16.6 8.77 25.07 8.77Q33.63 8.77 39.63 13.43Q45.7 18.08 45.7 24.6Q45.7 27.9 43.98 30.83Q42.32 33.75 39.48 35.92Q42.55 38.17 44.27 41.25Q46.07 44.25 46.07 47.7ZM29.13 51.38L29.13 51.38Q29.13 49.5 27.77 48.23Q26.43 46.95 24.47 46.95Q22.6 46.95 21.25 48.23Q19.9 49.5 19.9 51.38Q19.9 53.25 21.25 54.52Q22.6 55.8 24.47 55.8Q26.43 55.8 27.77 54.52Q29.13 53.25 29.13 51.38ZM30.32 27.52L30.32 27.52Q30.32 25.13 28.52 23.48Q26.72 21.75 24.18 21.75Q21.63 21.75 19.82 23.48Q18.02 25.13 18.02 27.52Q18.02 29.85 19.82 31.58Q21.63 33.3 24.18 33.3Q26.72 33.3 28.52 31.58Q30.32 29.85 30.32 27.52ZM106.52 63L106.52 63L87.7 63L84.7 55.58L69.1 55.58L66.4 63L48.92 63L67.38 16.2L84.4 16.2L106.52 63ZM79.45 42.9L79.45 42.9L76.38 35.55L73.67 42.9L79.45 42.9Z" />
	<path id="8ana " fill="#0088ff" d="M165.78 63L165.78 63L152.95 63L132.03 41.48Q132.03 43.13 132.03 44.78Q132.03 46.42 131.95 48.08Q131.95 49.13 131.95 50.17Q131.95 51.23 131.95 52.2Q131.88 54.9 131.88 57.6Q131.95 60.3 132.1 63L114.17 63Q114.92 57.3 115.3 51.6Q115.67 45.83 115.67 40.05Q115.6 34.13 115.22 28.2Q114.92 22.2 114.17 16.2L127.6 16.2L147.1 33.6Q147.03 31.43 146.88 29.25Q146.8 27.08 146.72 24.9Q146.57 22.73 146.5 20.55Q146.43 18.38 146.28 16.2L165.78 16.2Q164.95 25.8 165.03 35.63Q165.1 45.38 165.47 55.13Q165.55 56.7 165.55 58.2Q165.63 59.7 165.7 61.27Q165.7 61.73 165.7 62.17Q165.78 62.55 165.78 63ZM226.75 63L226.75 63L207.93 63L204.93 55.58L189.33 55.58L186.63 63L169.15 63L187.6 16.2L204.63 16.2L226.75 63ZM199.68 42.9L199.68 42.9L196.6 35.55L193.9 42.9L199.68 42.9Z" />
</svg>