<svg xmlns="http://www.w3.org/2000/svg" viewBox="0 0 360 72" width="360" height="72">
	<style>
		tspan { white-space:pre }
	</style>
	<path id="geekacg " fill="#f99f11" d="M53.04 62L53.04 62L27.12 62Q24.48 62 22.56 61.76Q20.72 61.52 18.88 60.64Q18.24 60.24 17.52 59.84Q16.8 59.36 16.08 58.72Q15.2 58 14.16 57.2Q13.2 56.32 12.24 55.36Q8.56 52 5.44 47.6Q2.4 43.2 2.48 38.4Q2.48 36.96 2.8 35.52Q3.2 34 4 32.48Q8.64 24.24 16.24 18.64Q23.92 13.04 35.92 9.68L45.04 23.12Q39.04 25.44 33.44 28.24Q27.92 31.04 23.84 35.28Q23.28 35.84 22.96 36.48Q22.72 37.04 22.8 37.6Q22.8 37.92 22.88 38.32Q23.04 38.64 23.2 38.96Q23.36 39.36 23.6 39.68Q23.84 40 24.16 40.4Q26.72 43.36 29.04 44.56Q31.36 45.68 33.2 45.6Q33.36 45.6 33.52 45.6Q33.76 45.6 33.84 45.6L34 30.96L52.8 36.24Q52.32 39.28 52.08 42.32Q51.84 45.28 51.84 48.24Q51.84 51.68 52.16 55.12Q52.48 58.56 53.04 62ZM94.16 25.36L94.16 25.36Q89.84 24.72 85.44 24.64Q81.12 24.48 76.64 24.8Q76.64 25.52 76.56 26.24Q76.56 26.96 76.56 27.68Q76.56 28.48 76.56 29.2Q76.56 29.92 76.56 30.64Q80.96 30.96 85.28 30.88Q89.6 30.72 93.92 30L90.96 43.36L76.48 43.36Q76.48 44.08 76.48 44.8Q76.56 45.52 76.56 46.32Q76.56 47.04 76.56 47.84Q76.64 48.56 76.64 49.28Q81.04 49.6 85.36 49.44Q89.68 49.28 94 48.64L91.04 62Q85.2 62 79.36 62Q73.6 62 67.84 62Q64.96 62 62 62Q59.12 62 56.24 62Q56.8 49.52 56.72 37.04Q56.72 24.56 56.24 12.08Q60.64 12.08 64.96 12.08Q69.36 12.08 73.76 12.08Q78.08 12.08 82.4 12.08Q86.8 12.08 91.2 12.08L94.16 25.36ZM135.92 25.36L135.92 25.36Q131.6 24.72 127.2 24.64Q122.88 24.48 118.4 24.8Q118.4 25.52 118.32 26.24Q118.32 26.96 118.32 27.68Q118.32 28.48 118.32 29.2Q118.32 29.92 118.32 30.64Q122.72 30.96 127.04 30.88Q131.36 30.72 135.68 30L132.72 43.36L118.24 43.36Q118.24 44.08 118.24 44.8Q118.32 45.52 118.32 46.32Q118.32 47.04 118.32 47.84Q118.4 48.56 118.4 49.28Q122.8 49.6 127.12 49.44Q131.44 49.28 135.76 48.64L132.8 62Q126.96 62 121.12 62Q115.36 62 109.6 62Q106.72 62 103.76 62Q100.88 62 98 62Q98.56 49.52 98.48 37.04Q98.48 24.56 98 12.08Q102.4 12.08 106.72 12.08Q111.12 12.08 115.52 12.08Q119.84 12.08 124.16 12.08Q128.56 12.08 132.96 12.08L135.92 25.36ZM194.56 58L194.56 58L174 62L162.08 45.2Q162.16 49.36 162.24 53.6Q162.4 57.76 162.56 62L141.76 62Q142.64 49.52 142.64 37.04Q142.64 24.56 141.76 12.08L162.56 12.08Q162.4 17.2 162.24 22.48Q162.16 27.68 162.08 32.88L171.04 12.08L191.6 16.08L179.04 37.68L194.56 58Z" />
	<path id="geekacg " fill="#0088ff" d="M259.44 62L259.44 62L239.36 62L236.16 54.08L219.52 54.08L216.64 62L198 62L217.68 12.08L235.84 12.08L259.44 62ZM230.56 40.56L230.56 40.56L227.28 32.72L224.4 40.56L230.56 40.56ZM303.28 47.44L303.28 47.44L296.16 63.04Q283.52 60.96 275.12 53.6Q266.72 46.24 266.72 36.64Q266.72 27.36 274.56 20.16Q282.48 12.88 294.4 10.56L303.12 25.04Q297.36 26.24 293.6 29.36Q289.92 32.4 289.92 36.24Q289.92 40.16 293.68 43.2Q297.44 46.24 303.28 47.44ZM358.08 62L358.08 62L332.16 62Q329.52 62 327.6 61.76Q325.76 61.52 323.92 60.64Q323.28 60.24 322.56 59.84Q321.84 59.36 321.12 58.72Q320.24 58 319.2 57.2Q318.24 56.32 317.28 55.36Q313.6 52 310.48 47.6Q307.44 43.2 307.52 38.4Q307.52 36.96 307.84 35.52Q308.24 34 309.04 32.48Q313.68 24.24 321.28 18.64Q328.96 13.04 340.96 9.68L350.08 23.12Q344.08 25.44 338.48 28.24Q332.96 31.04 328.88 35.28Q328.32 35.84 328 36.48Q327.76 37.04 327.84 37.6Q327.84 37.92 327.92 38.32Q328.08 38.64 328.24 38.96Q328.4 39.36 328.64 39.68Q328.88 40 329.2 40.4Q331.76 43.36 334.08 44.56Q336.4 45.68 338.24 45.6Q338.4 45.6 338.56 45.6Q338.8 45.6 338.88 45.6L339.04 30.96L357.84 36.24Q357.36 39.28 357.12 42.32Q356.88 45.28 356.88 48.24Q356.88 51.68 357.2 55.12Q357.52 58.56 358.08 62Z" />
</svg>