<svg xmlns="http://www.w3.org/2000/svg" viewBox="0 0 573.14 154.92"><defs><style>.cls-1{fill:#ff9d00;}.cls-2{fill:#0f84fd;}</style></defs><title>资源 2</title><g id="图层_2" data-name="图层 2"><g id="图层_1-2" data-name="图层 1"><path class="cls-1" d="M194,39.75a65.16,65.16,0,0,0-20.55-26.5A56.28,56.28,0,0,0,152.93,3Q143,0,123.48,0H21.38L6.68,79.08,32,84.82a20.86,20.86,0,0,1,7.92-8.35,26.74,26.74,0,0,1,11.77-2.61q11.57,0,18.54,7.31t7.08,19q0,12-7.08,19.72a22.19,22.19,0,0,1-17.5,7.72,23.65,23.65,0,0,1-16.46-6.47q-6.88-6.25-7.82-16.48H0a60.1,60.1,0,0,0,5.11,19.87,53.73,53.73,0,0,0,11.58,16.33q15,14.08,36.52,14.08a53,53,0,0,0,21-4.07,55.31,55.31,0,0,0,17.47-12,53.05,53.05,0,0,0,15.76-38.5q0-22.22-14.71-37.56Q78.14,46.94,57.07,47A48.7,48.7,0,0,0,45.69,48.3a59.36,59.36,0,0,0-9.8,4.07l4.81-26.5h81.56q23.79.31,35.68,13.46,12.52,13.35,12.52,38.18a65.83,65.83,0,0,1-3.13,20.76q-3.45,10.13-8.55,15.34a36.33,36.33,0,0,1-14.09,9.49,43.56,43.56,0,0,1-9.18,2c-3.82.48-15.38.73-15.38.73a53.45,53.45,0,0,1-13.63,22.94c-1.11,1.11-2.25,2.14-3.4,3.14h21.19q18.06,0,27.77-2.61a59.84,59.84,0,0,0,18.59-8.76,69,69,0,0,0,22.44-27.13Q201,97.54,201,76.68,200.71,54.87,194,39.75Z"/><path class="cls-2" d="M219.67,140.94l13.87-71.67H218.05l5-22.87h85l-5,22.87H260.19l-13.87,71.67Zm83-136.49-4.86,22.86H223.27l5-22.86ZM298.9,78.27l7.92,45.2a18.18,18.18,0,0,1,.09,7.83,12.76,12.76,0,0,1-2.7,5.49,11,11,0,0,1-4.68,3.15,17.37,17.37,0,0,1-5.85,1H249.92l4.33-21.43h25.2L273,78.27Zm95.08-63-8.29,22.87H352.74l-16,103.18H309.89L325.73,38.12H305.38l8.29-22.87h15.66L331.49.85h27l-2.16,14.4Zm-3.79,27.91v83.73a15.41,15.41,0,0,1-.9,5.22,15.16,15.16,0,0,1-2.61,4.59,12.63,12.63,0,0,1-4.32,3.33,13.29,13.29,0,0,1-5.85,1.27H344.1l10.26-22.87h7.74c1.09,0,1.63-.6,1.63-1.8V43.16Z"/><path class="cls-2" d="M437.91,83l-13.14,58.16H397.94L410.9,83Zm-10.8-41.77,11,34H411.26l-11.16-34ZM428.37,1l12.06,33.14H413.6L401.54,1ZM556.75,92.68a25,25,0,0,1,7.12.81,8.18,8.18,0,0,1,4,2.43,7.79,7.79,0,0,1,1.71,3.78,29.74,29.74,0,0,1,.36,4.86V117l-29.53,7.74h32.77l-6.66,16.57H531.19l-24-7.93-31.69,8.29h-34l6.3-17.11H466.9l8.29-1.62-30.62-10.27H495l13,3.43L537.67,110H442.59l4.51-17.28ZM468.7,48.56V71.79a1.27,1.27,0,0,0,1.44,1.44h7.39v-9H470l4.5-15.67h87.7a11,11,0,0,1,7.29,2.34,7.42,7.42,0,0,1,2.79,6V71.43a8.57,8.57,0,0,1-2.88,6.48l-10.09,8.65a9.34,9.34,0,0,1-5.94,2.34H452.5a11.06,11.06,0,0,1-7.39-2.43,7.43,7.43,0,0,1-2.88-5.86v-32ZM473,1V27.67a2.79,2.79,0,0,0,2.71,2.71h63a2.79,2.79,0,0,0,2.7-2.71H475.19l3.42-8.82h62.84v-.54a2.51,2.51,0,0,0-.81-2,2.76,2.76,0,0,0-1.89-.72H474.64L478.25,1h79.58a10,10,0,0,1,7.3,2.44,7.68,7.68,0,0,1,3,5.85v18.9a8.26,8.26,0,0,1-2.7,5.95l-8.29,7.92a8.06,8.06,0,0,1-6.12,2.7H456.82a10.65,10.65,0,0,1-7.29-2.61,7.85,7.85,0,0,1-3-6V1Zm29.89,72.21h8.83v-9h-8.83Zm41.6,0A1.27,1.27,0,0,0,546,71.79V65.67a1.27,1.27,0,0,0-1.44-1.44h-7.38v9Z"/></g></g></svg>