<svg xmlns="http://www.w3.org/2000/svg" viewBox="0 0 825.67 241.1"><defs><style>.cls-1{fill:#ff9d00;}.cls-2{fill:#0f84fd;}</style></defs><title>资源 1</title><g id="图层_2" data-name="图层 2"><g id="图层_1-2" data-name="图层 1"><path class="cls-1" d="M166.2,29.33l-9,22.87H0L9,29.33ZM100.12,59v91.77a15.08,15.08,0,0,1-1.26,6.08,16.24,16.24,0,0,1-8.47,8.4,15.26,15.26,0,0,1-6.12,1.25H33.49L43,143.67H68.42a5.05,5.05,0,0,0,3.7-1.53,5.28,5.28,0,0,0,1.53-3.87V59Z"/><path class="cls-1" d="M346.26,29.33l-9,22.87H180.06l9-22.87ZM280.18,59v91.77a14.91,14.91,0,0,1-1.26,6.08,16.22,16.22,0,0,1-3.42,5,16.4,16.4,0,0,1-5,3.4,15.27,15.27,0,0,1-6.13,1.25H213.56l9.54-22.87h25.39a5,5,0,0,0,3.69-1.53,5.25,5.25,0,0,0,1.53-3.87V59Z"/><path class="cls-2" d="M355.81,166.18l13.86-71.67H354.19l5-22.87h85l-5,22.87H396.32l-13.86,71.67Zm83-136.49L434,52.55H359.41l5-22.86ZM435,103.51l7.92,45.2a18.18,18.18,0,0,1,.09,7.83,12.76,12.76,0,0,1-2.7,5.49,11.1,11.1,0,0,1-4.68,3.16,17.72,17.72,0,0,1-5.86,1H386.06l4.32-21.43h25.21l-6.48-41.24Zm95.07-63-8.28,22.87h-33l-16,103.18H446L461.87,63.36H441.52l8.28-22.87h15.67l2.16-14.4h27l-2.16,14.4ZM526.33,68.4v83.73a15.41,15.41,0,0,1-.9,5.22,15.16,15.16,0,0,1-2.61,4.59,13,13,0,0,1-4.32,3.34,13.5,13.5,0,0,1-5.86,1.26H480.23l10.27-22.87h7.74q1.62,0,1.62-1.8V68.4Z"/><path class="cls-2" d="M574.05,108.2,560.9,166.36H534.07l13-58.16ZM563.24,66.42l11,34H547.4l-11.17-34Zm1.26-40.15L576.57,59.4H549.74L537.67,26.27Zm128.39,91.65a24.87,24.87,0,0,1,7.11.81,8.13,8.13,0,0,1,4,2.43,7.79,7.79,0,0,1,1.71,3.78,29.74,29.74,0,0,1,.36,4.86v12.43L676.5,150h32.77l-6.66,16.57H667.32l-24-7.93-31.69,8.29h-34l6.3-17.11H603l8.28-1.62-30.61-10.26h50.42l13,3.42,29.71-6.12H578.73l4.5-17.29Zm-88-44.12V97a1.27,1.27,0,0,0,1.44,1.44h7.38v-9H606.1l4.5-15.67h87.69a11,11,0,0,1,7.29,2.34,7.45,7.45,0,0,1,2.79,6V96.67a8.57,8.57,0,0,1-2.88,6.48l-10.08,8.65a9.34,9.34,0,0,1-5.94,2.34H588.63a11.05,11.05,0,0,1-7.38-2.43,7.41,7.41,0,0,1-2.88-5.86v-32Zm4.32-47.53V52.92a2.77,2.77,0,0,0,2.7,2.7h63a2.77,2.77,0,0,0,2.7-2.7H611.32l3.42-8.83h62.84v-.54a2.51,2.51,0,0,0-.81-2,2.76,2.76,0,0,0-1.89-.72h-64.1l3.6-14.58H694a10,10,0,0,1,7.29,2.43,7.68,7.68,0,0,1,3,5.85V53.46a8.26,8.26,0,0,1-2.7,5.94l-8.28,7.92a8.06,8.06,0,0,1-6.12,2.7H593a10.65,10.65,0,0,1-7.29-2.61,7.84,7.84,0,0,1-3-6V26.27Zm29.89,72.2h8.82v-9h-8.82Zm41.59,0A1.27,1.27,0,0,0,682.08,97V90.91a1.27,1.27,0,0,0-1.44-1.44h-7.38v9Z"/><path class="cls-1" d="M168.47,241.1a193.38,193.38,0,0,1-50.19-6.59c-43.86-11.76-69.48-35.17-70.55-36.17L64,180.72c.23.21,23.1,20.87,61.6,30.91C177,225,230.76,214.18,285.45,179.42l12.88,20.25C265,220.89,231.09,234.11,197.68,239A203.19,203.19,0,0,1,168.47,241.1Z"/><path class="cls-2" d="M781.53,189.53l-14.84-18.86,7.42,9.43-7.45-9.4c.31-.25,31.05-25.2,34.66-65,2.63-29-9.57-59.31-36.26-89.95L783.16,0c31.26,35.88,45.4,72.3,42,108.23C820.48,158.34,783.12,188.28,781.53,189.53Z"/><path class="cls-2" d="M743.05,156.63,735.89,147l-7.21-9.59c.19-.15,18.83-14.55,20.81-37,1.44-16.32-6.1-33.57-22.42-51.27l17.64-16.27c21.21,23,30.85,46.55,28.66,70C770.26,136,744.16,155.8,743.05,156.63Z"/></g></g></svg>