<?xml version="1.0" encoding="UTF-8"?>
<svg width="30px" height="30px" viewBox="0 0 30 30" version="1.1" xmlns="http://www.w3.org/2000/svg" xmlns:xlink="http://www.w3.org/1999/xlink">
    <!-- Generator: Sketch 49.2 (51160) - http://www.bohemiancoding.com/sketch -->
    <title>贴吧</title>
    <desc>Created with Sketch.</desc>
    <defs>
        <polygon id="path-1" points="0 0 30 0 30 29.9996 0 29.9996"></polygon>
    </defs>
    <g id="点评2期-优化" stroke="none" stroke-width="1" fill="none" fill-rule="evenodd">
        <g id="空状态" transform="translate(-946.000000, -544.000000)">
            <g id="Group-15" transform="translate(906.000000, 544.000000)">
                <g id="贴吧" transform="translate(40.000000, 0.000000)">
                    <g id="Group-3">
                        <mask id="mask-2" fill="white">
                            <use xlink:href="#path-1"></use>
                        </mask>
                        <g id="Clip-2"></g>
                        <path d="M23.49,22.7816 C23.49,22.7816 21.844,22.8376 20.859,22.8106 L15.145,22.8106 L15.176,14.7306 L17.024,14.7306 L17.024,6.6796 L19.795,6.6796 L19.795,9.3636 L22.566,9.3636 L22.566,11.1526 L19.795,11.1526 L19.795,14.7306 L23.49,14.7306 L23.49,20.1906 C23.512,21.0056 23.49,22.7816 23.49,22.7816 Z M14.544,22.9566 C12.84,22.3746 11.586,21.5006 10.785,20.3356 C9.883,21.6456 8.454,22.6406 6.5,23.3206 L6.5,21.5006 C8.755,20.2396 9.808,18.2006 9.657,15.3856 L9.633,10.2576 L11.481,10.2576 L11.481,15.6256 C11.33,18.3916 12.639,20.0936 14.544,21.2096 L14.544,22.9566 Z M14.252,7.5736 L14.252,18.3086 L12.439,18.2976 L12.439,9.2706 L8.709,9.3636 L8.709,18.3086 L6.876,18.2976 L6.862,7.5736 L14.252,7.5736 Z M15,-0.0004 C6.716,-0.0004 0,6.7156 0,14.9996 C0,23.2846 6.716,29.9996 15,29.9996 C23.284,29.9996 30,23.2846 30,14.9996 C30,6.7156 23.284,-0.0004 15,-0.0004 Z" id="Fill-1" fill="#5DA2E5" mask="url(#mask-2)"></path>
                    </g>
                    <path d="M20.7185,15.6253 L17.9475,15.6253 L17.9475,20.9923 L19.5805,20.9183 C19.9315,20.9443 20.7185,20.9923 20.7185,20.9923 C20.7185,20.9923 20.7415,20.4113 20.7185,20.0983 L20.7185,15.6253 Z" id="Fill-4" fill="#5DA2E5"></path>
                </g>
            </g>
        </g>
    </g>
</svg>